<svg xmlns="http://www.w3.org/2000/svg" width="205" height="123" viewBox="0 0 205 123">
  <path fill="#4D4D4D" d="M193.058,0H12.066C5.403,0,0,6.258,0,13.978v94.943c0,7.721,5.403,13.978,12.066,13.978h180.991
	c6.665,0,12.065-6.257,12.065-13.978V13.978C205.123,6.258,199.722,0,193.058,0z M139.89,14.532c0-1.89,1.331-3.419,2.976-3.419
	h18.602c1.646,0,2.977,1.529,2.977,3.419v19.662c0,1.891-1.331,3.419-2.977,3.419h-18.602c-1.645,0-2.976-1.529-2.976-3.419V14.532z
	 M147.703,51.718v19.663c0,1.89-1.332,3.419-2.977,3.419h-18.603c-1.645,0-2.977-1.529-2.977-3.419V51.718
	c0-1.89,1.332-3.419,2.977-3.419h18.603C146.371,48.299,147.703,49.828,147.703,51.718z M107.522,14.532
	c0-1.89,1.331-3.419,2.976-3.419h18.603c1.645,0,2.976,1.529,2.976,3.419v19.662c0,1.891-1.332,3.419-2.976,3.419h-18.603
	c-1.645,0-2.976-1.529-2.976-3.419V14.532z M115.23,51.718v19.663c0,1.89-1.331,3.419-2.977,3.419H93.651
	c-1.642,0-2.977-1.529-2.977-3.419V51.718c0-1.89,1.334-3.419,2.977-3.419h18.603C113.899,48.299,115.23,49.828,115.23,51.718z
	 M75.154,14.532c0-1.89,1.333-3.419,2.976-3.419h18.602c1.643,0,2.976,1.529,2.976,3.419v19.662c0,1.891-1.333,3.419-2.976,3.419
	H78.13c-1.644,0-2.976-1.529-2.976-3.419V14.532z M82.595,51.718v19.663c0,1.89-1.333,3.419-2.977,3.419H61.016
	c-1.645,0-2.976-1.529-2.976-3.419V51.718c0-1.89,1.332-3.419,2.976-3.419h18.602C81.262,48.299,82.595,49.828,82.595,51.718z
	 M42.042,14.532c0-1.89,1.332-3.419,2.976-3.419H63.62c1.644,0,2.976,1.529,2.976,3.419v19.662c0,1.891-1.332,3.419-2.976,3.419
	H45.018c-1.644,0-2.976-1.529-2.976-3.419V14.532z M9.301,14.532c0-1.89,1.332-3.419,2.977-3.419H30.88
	c1.643,0,2.976,1.529,2.976,3.419v19.662c0,1.887-1.333,3.419-2.976,3.419H12.278c-1.645,0-2.977-1.532-2.977-3.419V14.532z
	 M9.301,71.381V51.718c0-1.89,1.332-3.419,2.977-3.419h34.228c1.644,0,2.977,1.529,2.977,3.419v19.663
	c0,1.89-1.333,3.419-2.977,3.419H12.278C10.633,74.8,9.301,73.271,9.301,71.381z M172.153,108.567c0,1.891-1.331,3.419-2.976,3.419
	H36.729c-1.645,0-2.977-1.529-2.977-3.419V88.905c0-1.89,1.332-3.419,2.977-3.419h132.449c1.645,0,2.976,1.529,2.976,3.419V108.567z
	 M196.812,71.381c0,1.89-1.331,3.419-2.976,3.419h-34.229c-1.645,0-2.976-1.529-2.976-3.419V51.718c0-1.89,1.332-3.419,2.976-3.419
	h34.229c1.645,0,2.976,1.529,2.976,3.419V71.381z M196.812,34.194c0,1.891-1.331,3.419-2.976,3.419h-18.603
	c-1.645,0-2.977-1.529-2.977-3.419V14.532c0-1.89,1.332-3.419,2.977-3.419h18.603c1.645,0,2.976,1.529,2.976,3.419V34.194z"/>
</svg>
