<svg xmlns="http://www.w3.org/2000/svg" width="205" height="123" viewBox="0 0 205 123">
  <path fill-rule="evenodd" clip-rule="evenodd" fill="#4D4D4D" d="M205.114,62.116c0-11.669,0.009-23.331,0.009-35.032
	c0-2.011-1.333-2.962-3.712-2.97c-1.166-0.003-2.334,0-3.646,0c0-3.348,0.002-6.554,0-9.759c-0.002-2.625-1.029-3.549-4.137-3.833
	c-3.33-0.304-6.652-0.68-9.986-0.977c-0.998-0.088-1.357-0.41-1.303-1.275c0.088-1.425,0.037-2.859,0.023-4.287
	c-0.016-1.85-1.189-2.977-3.389-3.19c-8.609-0.839-17.219-1.059-25.865-0.279C137.171,1.95,122.71,6.586,109.7,14.432
	c-2.445,1.474-4.787,3.072-7.206,4.633c-0.238-0.159-0.461-0.3-0.673-0.451c-9.217-6.56-19.485-11.567-30.979-14.732
	C56.3-0.124,41.419-0.797,26.327,0.804c-2.646,0.281-3.553,1.215-3.58,3.51c-0.02,1.658-0.004,3.318-0.004,5.039
	c-3.784,0.399-7.428,0.813-11.081,1.159c-3.35,0.317-4.305,1.151-4.305,3.936c0,3.169,0,6.339,0,9.661c-1.155,0-2.094,0-3.033,0
	c-3.233,0-4.325,0.27-4.324,3.64C0.003,37.795,0,48.23,0,57.886c0,18.925,0,37.647,0.002,56.47c0,2.737,1.081,3.629,4.34,3.629
	c26.688-0.002,53.377,0,80.066,0c0.461,0,0.923,0,1.44,0c0.029,0.512,0.031,0.904,0.077,1.293c0.24,2.029,2.11,3.698,4.404,3.709
	c8.125,0.044,16.25,0.035,24.374,0.012c1.627-0.005,2.976-0.662,3.689-1.88c0.543-0.926,0.746-1.993,1.158-3.161
	c0.893,0,1.971,0,3.049,0c26.123,0.006,52.246,0.015,78.367,0.02c2.994,0.002,4.15-1.001,4.15-3.562
	C205.116,96.926,205.114,79.588,205.114,62.116z M14.21,105.896c0-29.992,0-59.867,0-89.899c2.76-0.287,5.537-0.575,8.532-0.887
	c0,0.63,0,1.133,0,1.635c0,18.456,0.001,36.912,0.001,55.37c0,8.812-0.005,17.622,0.002,26.434c0.002,2.896,1.339,3.878,4.744,3.531
	c0.656-0.067,1.314-0.115,1.973-0.169c13.808-1.115,27.438-0.609,40.706,3.169c1.115,0.318,2.205,0.698,3.302,1.059
	c0.168,0.054,0.31,0.167,0.73,0.405C54.042,103.63,34.192,103.95,14.21,105.896z M98.284,48.426c-0.001,20.648,0,41.296,0,61.944
	c0,0.392,0,0.785,0,1.333c-0.403-0.189-0.687-0.289-0.925-0.438c-11.761-7.413-24.836-12.347-39.35-14.359
	c-5.097-0.706-10.296-0.997-15.464-1.194c-3.66-0.14-7.346,0.199-11.021,0.324c-0.608,0.021-1.217,0.046-2.018,0.075
	c0-30.02,0-59.862,0-89.902c2.255-0.141,4.442-0.317,6.633-0.409c7.052-0.3,14.093-0.034,21.028,1.026
	c15.237,2.332,28.729,7.825,40.451,16.343c0.433,0.315,0.644,1.026,0.646,1.553C98.303,32.623,98.285,40.523,98.284,48.426z
	 M106.833,111.875c0-2.881,0.001-5.454,0-8.027c-0.007-21.638-0.017-43.277-0.021-64.916c-0.001-4.763,0.033-9.527-0.002-14.291
	c-0.006-0.8,0.287-1.356,1.043-1.799c4.364-2.57,8.544-5.397,13.114-7.674c16.709-8.329,34.932-10.552,54.012-8.973
	c0.139,0.012,0.271,0.058,0.537,0.115c0,29.887,0,59.79,0,89.846C150.353,94.099,127.353,98.675,106.833,111.875z M190.915,105.886
	c-20.014-1.936-39.869-2.246-59.773,0.364c2.359-0.688,4.688-1.466,7.084-2.046c11.305-2.733,22.85-3.262,34.518-2.512
	c1.836,0.118,3.666,0.291,5.494,0.475c2.414,0.241,4.096-0.89,4.109-2.946c0.039-5.48,0.004-10.961,0.002-16.44
	c-0.002-1.111,0.012-2.223,0.014-3.334c0.002-20.928,0.002-41.855,0.004-62.784c0-0.464,0-0.929,0-1.539
	c2.951,0.294,5.699,0.568,8.549,0.853C190.915,45.934,190.915,75.812,190.915,105.886z"/>
</svg>
