<svg xmlns="http://www.w3.org/2000/svg" viewBox="0 0 460 130" preserveAspectRatio="xMinYMin">
  <g id="thumb-and-mouse" transform="translate(80,28)">
    <path id="thumb" fill="#447AC4" d="m11,64l-10,-15v-41c0,-2 3,-7 5,-7h15c1,0 5,3 5,7v41l-10,15c0,0 -2.5,2 -5,0"/>
    <g transform="scale(.4) translate(4,75)">
      <path d="m51,13c-3,1 -6,3 -7,5c-5,7 -5,20 -2,39c2,7 5,23 6,25c0,1 -1,0 -3,-1c-6,-6 -11,-9 -17,-9c-6,0 -12,4 -15,10c-1,3 -1,4 -1,8c0,8 2,12 14,27c6,8 8,11 13,20c2,2 5,6 13,14l11,11l0,6l0,6l19,1l18,0l6,-6l6,-6l5,6l6,6l9,0l9,-1l1,-10l0,-10l2,-3c1,-2 4,-6 6,-9c3,-4 6,-9 8,-11c7,-10 7,-10 7,-37c0,-21 0,-21 -2,-24c-1,-3 -4,-5 -7,-7c-2,-1 -3,-1 -7,-1c-3,0 -4,0 -7,1c-2,1 -3,2 -3,2c0,0 -1,-2 -2,-3c-1,-4 -4,-6 -8,-8c-2,-1 -3,-2 -7,-2c-6,0 -8,1 -12,4c-1,2 -2,2 -2,1c0,-2 -6,-6 -9,-7c-4,-2 -9,-2 -12,0c-2,1 -4,2 -5,3c-1,0 -2,1 -2,0c0,-1 -1,-11 -2,-14c-3,-13 -8,-21 -15,-24c-3,-2 -9,-2 -12,-2z"/>
      <path fill="#FFF" d="m0,0l60,22c3,2 6,6 8,12c2,6 2,9 4,22c1,6 1,13 2,15c2,11 5,15 8,12c1,-1 1,-2 1,-10c0,-5 1,-10 1,-10c1,-3 5,-5 9,-5c2,0 6,2 8,4c1,2 1,2 1,7c0,7 1,12 2,14c1,0 2,0 3,0c3,0 4,-1 5,-10l0,-8l2,-1c3,-3 7,-4 11,-3c6,1 7,2 8,13c0,9 1,10 4,10c2,0 4,-1 5,-6c2,-6 5,-8 10,-7c2,1 4,2 4,5c1,4 1,26 0,34c0,7 0,7 -2,11c-2,4 -8,12 -15,21c-1,2 -3,4 -3,4c-1,1 -2,14 -2,19l0,2l-4,0l-5,0l-6,-7c-3,-4 -6,-7 -7,-7c0,0 -3,3 -7,7l-6,7l-14,0l-13,0l0,-5l0,-4l-5,-4c-2,-2 -6,-5 -8,-7c-6,-5 -9,-9 -14,-17c-2,-3 -8,-12 -13,-19c-12,-17 -12,-18 -12,-20c0,-4 5,-10 9,-10c5,0 16,8 22,17c4,6 5,7 8,5c2,0 2,-1 2,-3c1,-3 -1,-11 -3,-21c-7,-24 -10,-36 -10,-44c0,-10 2,-14 8,-14c1,0 3,0 4,1l-60,-22z"/>
      <path d="m87,103l0,0c2,0 4,1 4,3l0,34c0,2 -2,3 -4,3l0,0c-2,0 -3,-1 -3,-3l0,-34c0,-2 1,-3 3,-3z"/>
      <path d="m108,103l0,0c2,0 4,1 4,3l0,34c0,2 -2,3 -4,3l0,0c-2,0 -4,-1 -4,-3l0,-34c0,-2 2,-3 4,-3z"/>
      <path d="m127,103l0,0c2,0 4,1 4,3l0,34c0,2 -2,3 -4,3l0,0c-2,0 -4,-1 -4,-3l0,-34c0,-2 2,-3 4,-3z"/>
    </g>
  </g>
</svg>
