<svg xmlns="http://www.w3.org/2000/svg" viewBox="0 0 192 102" preserveAspectRatio="xMinYMin">
  <path d="m76 45c0 1 2 4 -2 5c-1 0 -2 .5 -4 .5c-1 0 -2 1 -1 2c0 1 0 2 -2 3c1 0 2 0 2 1c0 1 -1 1 -1 3c0 1 3 5 2 8c0 3 -10 2 -20 2c0 0 -3 11 10 13c7 1 14 7 14 16h-74c0 -5 0 -12 8 -14c0 0 14 -5 14 -14c1 -13 -9 -17 -11 -27c-5 -21 6 -39 29 -39c8 0 13 2 15 4c10 5 12 16 12 22c0 3 -2 6 .5 8c8 6 8 6 9 7z"/>\
  <path fill="#80A9F8" d="m105 26c0 0 26 25 1 52c-3 3 -9 2 -11 1c-2 -1 -4 -4 -2 -6c0 0 17 -18 0 -41c-1 -2 0 -5 2 -6c2 -1 8 -2 11 1z"/>\
  <path fill="#6B9AE0" d="m134 14c37 41 0 74 0 74c-3 3 -9 2 -11 1c-2 -1 -4 -4 -2 -6c27 -35 0 -64 0 -64l0 0c-1 -2 0 -5 2 -6c2 -1 9 -1 11 1z"/>\
  <path fill="#447AC4" d="m167 2c0 0 48 47 0 97c-3 3 -9 2 -11 1c-2 -1 -3 -5 -2 -6c36 -47 0 -87 0 -87c-1 -2 0 -5 2 -6c2 -1 9 -2 11 1z"/>\
</svg>
