<!-- Text 'sitecues' as an image'-->
<svg xmlns="http://www.w3.org/2000/svg">
<path fill="#100f0d" stroke="transparent" d="M61.2 79.2Q61.2 83.7 59.5 87.1 57.8 90.5 54.8 92.8 51.7 95.1 47.6 96.2 43.4 97.3 38.6 97.3 35.6 97.3 33 96.9 30.3 96.5 28.2 95.8 26.1 95.1 24.7 94.4 23.3 93.7 22.6 93.1 22 92.5 21.6 91.2 21.3 89.8 21.3 87.3 21.3 85.6 21.4 84.5 21.5 83.5 21.7 82.9 22 82.3 22.3 82.1 22.7 81.9 23.2 81.9 23.9 81.9 25.1 82.6 26.4 83.3 28.3 84.2 30.1 85.1 32.6 85.9 35.1 86.6 38.3 86.6 40.3 86.6 41.8 86.2 43.4 85.8 44.5 85 45.7 84.3 46.2 83.1 46.8 81.9 46.8 80.4 46.8 78.7 45.7 77.4 44.7 76.1 42.9 75.2 41.1 74.3 38.8 73.4 36.6 72.6 34.2 71.6 31.8 70.6 29.6 69.3 27.3 68.1 25.5 66.2 23.7 64.3 22.7 61.7 21.6 59 21.6 55.3 21.6 51.6 23 48.5 24.5 45.3 27.3 43.1 30 40.9 34 39.6 37.9 38.4 42.8 38.4 45.3 38.4 47.6 38.8 49.9 39.1 51.8 39.6 53.7 40.2 55 40.8 56.3 41.4 56.8 41.8 57.4 42.3 57.6 42.7 57.8 43.1 58 43.8 58.1 44.4 58.2 45.3 58.3 46.2 58.3 47.5 58.3 49.1 58.2 50.1 58.1 51.1 57.9 51.7 57.7 52.3 57.3 52.5 57 52.7 56.5 52.7 56 52.7 54.9 52.1 53.7 51.5 52.1 50.8 50.4 50.1 48.2 49.4 46 48.8 43.2 48.8 41.2 48.8 39.7 49.2 38.3 49.7 37.3 50.4 36.4 51.2 35.9 52.2 35.5 53.2 35.5 54.4 35.5 56.2 36.6 57.4 37.7 58.7 39.5 59.6 41.3 60.6 43.6 61.4 45.9 62.2 48.3 63.2 50.7 64.1 53 65.4 55.3 66.7 57.1 68.6 59 70.5 60.1 73.1 61.2 75.7 61.2 79.2ZM87 94Q87 94.6 86.7 95 86.3 95.5 85.5 95.8 84.6 96.1 83.2 96.2 81.8 96.4 79.6 96.4 77.5 96.4 76.1 96.2 74.7 96.1 73.8 95.8 73 95.5 72.6 95 72.3 94.6 72.3 94L72.3 41.9Q72.3 41.3 72.6 40.8 73 40.4 73.8 40.1 74.7 39.8 76.1 39.6 77.5 39.4 79.6 39.4 81.8 39.4 83.2 39.6 84.6 39.8 85.5 40.1 86.3 40.4 86.7 40.8 87 41.3 87 41.9L87 94M88.1 24Q88.1 28.5 86.3 30.2 84.5 31.9 79.6 31.9 74.6 31.9 72.9 30.3 71.1 28.6 71.1 24.3 71.1 19.9 72.9 18.2 74.7 16.4 79.7 16.4 84.6 16.4 86.4 18.1 88.1 19.8 88.1 24ZM132.7 88.9Q132.7 91.4 132.3 92.8 132 94.2 131.5 94.7 131 95.3 129.9 95.7 128.9 96.2 127.5 96.5 126.2 96.8 124.5 97 122.9 97.2 121.3 97.2 116.9 97.2 113.7 96.1 110.5 94.9 108.3 92.6 106.2 90.3 105.2 86.8 104.2 83.3 104.2 78.5L104.2 51.7 98 51.7Q96.9 51.7 96.3 50.3 95.7 48.9 95.7 45.7 95.7 44 95.8 42.9 96 41.7 96.3 41 96.6 40.3 97 40 97.4 39.8 98 39.8L104.2 39.8 104.2 28.1Q104.2 27.5 104.6 27 104.9 26.6 105.7 26.2 106.6 25.9 108 25.8 109.5 25.6 111.6 25.6 113.7 25.6 115.2 25.8 116.6 25.9 117.4 26.2 118.3 26.6 118.6 27 119 27.5 119 28.1L119 39.8 130.3 39.8Q130.9 39.8 131.3 40 131.8 40.3 132.1 41 132.4 41.7 132.5 42.9 132.7 44 132.7 45.7 132.7 48.9 132.1 50.3 131.5 51.7 130.4 51.7L119 51.7 119 76.3Q119 80.5 120.3 82.7 121.6 84.8 125.1 84.8 126.3 84.8 127.2 84.6 128.2 84.4 128.9 84.1 129.6 83.9 130.1 83.7 130.6 83.5 131 83.5 131.4 83.5 131.7 83.7 132 83.9 132.2 84.5 132.4 85.1 132.5 86.2 132.7 87.2 132.7 88.9ZM190.1 66.4Q190.1 69 188.9 70.3 187.7 71.6 185.6 71.6L153.8 71.6Q153.8 75 154.6 77.7 155.4 80.4 157.1 82.3 158.9 84.2 161.6 85.2 164.3 86.2 168.1 86.2 172 86.2 174.9 85.7 177.8 85.1 180 84.4 182.1 83.8 183.5 83.2 184.9 82.6 185.8 82.6 186.3 82.6 186.7 82.8 187 83.1 187.3 83.6 187.5 84.1 187.6 85.1 187.7 86 187.7 87.5 187.7 88.8 187.6 89.7 187.6 90.6 187.4 91.3 187.3 91.9 187.1 92.3 186.9 92.8 186.5 93.2 186.1 93.6 184.4 94.3 182.7 95 180.1 95.7 177.4 96.4 174 96.8 170.6 97.3 166.8 97.3 159.8 97.3 154.5 95.6 149.3 93.8 145.8 90.3 142.3 86.7 140.5 81.2 138.8 75.8 138.8 68.5 138.8 61.5 140.6 55.9 142.4 50.3 145.9 46.4 149.4 42.5 154.3 40.5 159.3 38.4 165.5 38.4 172 38.4 176.7 40.3 181.4 42.3 184.3 45.7 187.3 49.1 188.7 53.8 190.1 58.5 190.1 64L190.1 66.4M175.8 62.1Q176 55.9 173.4 52.4 170.7 48.8 165.1 48.8 162.3 48.8 160.2 49.9 158.2 50.9 156.8 52.7 155.4 54.5 154.7 56.9 153.9 59.4 153.8 62.1L175.8 62.1Z"/>
<path fill="#2d49a3" stroke="transparent" d="M238.9 86.5Q238.9 87.5 238.8 88.2 238.8 89 238.6 89.5 238.5 90 238.3 90.3 238.1 90.7 237.3 91.5 236.6 92.2 234.8 93.3 233.1 94.4 230.9 95.2 228.7 96.1 226.1 96.6 223.5 97.1 220.8 97.1 215.1 97.1 210.7 95.2 206.3 93.4 203.3 89.8 200.4 86.2 198.8 80.9 197.3 75.7 197.3 68.8 197.3 61 199.2 55.4 201.1 49.8 204.4 46.3 207.7 42.7 212.2 41 216.7 39.2 221.9 39.2 224.4 39.2 226.8 39.7 229.1 40.2 231.1 40.9 233.1 41.7 234.7 42.7 236.2 43.7 236.9 44.4 237.6 45.1 237.9 45.5 238.2 45.9 238.3 46.5 238.5 47 238.6 47.7 238.6 48.4 238.6 49.5 238.6 51.8 238.1 52.7 237.6 53.6 236.8 53.6 235.9 53.6 234.8 52.6 233.7 51.6 231.9 50.5 230.1 49.3 227.7 48.3 225.2 47.4 221.8 47.4 214.8 47.4 211.1 52.7 207.4 58.1 207.4 68.3 207.4 73.4 208.3 77.2 209.3 81.1 211.2 83.6 213 86.2 215.8 87.5 218.5 88.7 222 88.7 225.3 88.7 227.9 87.7 230.4 86.6 232.2 85.4 234.1 84.1 235.3 83.1 236.6 82.1 237.3 82.1 237.7 82.1 238 82.3 238.3 82.5 238.5 83.1 238.7 83.6 238.8 84.5 238.9 85.3 238.9 86.5Z"/>
<path fill="#2d49a3" stroke="transparent" d="M291.1 94.5Q291.1 95 290.9 95.3 290.7 95.6 290.2 95.9 289.7 96.1 288.8 96.2 288 96.4 286.7 96.4 285.4 96.4 284.5 96.2 283.7 96.1 283.2 95.9 282.7 95.6 282.5 95.3 282.4 95 282.4 94.5L282.4 87.6Q277.8 92.5 273.4 94.8 269.1 97.1 264.5 97.1 259.3 97.1 255.7 95.4 252.1 93.6 249.8 90.6 247.6 87.6 246.6 83.5 245.7 79.5 245.7 73.8L245.7 41.8Q245.7 41.3 245.9 41 246.1 40.7 246.7 40.4 247.3 40.2 248.2 40.1 249.1 40 250.5 40 251.9 40 252.9 40.1 253.8 40.2 254.4 40.4 254.9 40.7 255.2 41 255.4 41.3 255.4 41.8L255.4 72.5Q255.4 77.1 256.1 79.9 256.7 82.7 258.1 84.7 259.5 86.6 261.6 87.7 263.7 88.8 266.5 88.8 270.2 88.8 273.8 86.2 277.4 83.6 281.4 78.7L281.4 41.8Q281.4 41.3 281.6 41 281.8 40.7 282.4 40.4 283 40.2 283.9 40.1 284.8 40 286.3 40 287.7 40 288.6 40.1 289.6 40.2 290.1 40.4 290.6 40.7 290.9 41 291.1 41.3 291.1 41.8L291.1 94.5Z"/>
<path fill="#2d49a3" stroke="transparent" d="M347 65.9Q347 68.2 345.8 69.1 344.7 70.1 343.2 70.1L308.6 70.1Q308.6 74.5 309.5 78 310.4 81.5 312.5 84 314.5 86.6 317.8 87.9 321.1 89.3 325.8 89.3 329.6 89.3 332.5 88.6 335.4 88 337.6 87.3 339.7 86.5 341.1 85.9 342.5 85.3 343.2 85.3 343.6 85.3 343.9 85.5 344.2 85.7 344.4 86.1 344.6 86.5 344.7 87.2 344.7 88 344.7 89 344.7 89.8 344.7 90.3 344.6 90.9 344.5 91.3 344.4 91.8 344.2 92.1 344 92.5 343.7 92.8 343.4 93.1 341.8 93.9 340.2 94.6 337.7 95.3 335.2 96 331.9 96.6 328.6 97.1 324.8 97.1 318.3 97.1 313.4 95.3 308.5 93.5 305.2 89.9 301.8 86.3 300.1 80.9 298.4 75.6 298.4 68.4 298.4 61.6 300.2 56.2 302 50.8 305.3 47 308.6 43.2 313.3 41.2 318 39.2 323.8 39.2 330 39.2 334.3 41.2 338.7 43.1 341.5 46.5 344.3 49.9 345.6 54.4 347 59 347 64.1L347 65.9M337.2 63Q337.4 55.4 333.9 51.1 330.3 46.7 323.4 46.7 319.8 46.7 317.1 48.1 314.4 49.4 312.6 51.6 310.8 53.9 309.8 56.8 308.8 59.8 308.6 63L337.2 63Z"/>
<path fill="#2d49a3" stroke="transparent" d="M387.1 80.2Q387.1 84.2 385.6 87.4 384.1 90.6 381.3 92.7 378.6 94.9 374.8 96 371 97.1 366.4 97.1 363.6 97.1 361 96.7 358.5 96.2 356.5 95.6 354.4 94.9 353 94.2 351.6 93.4 351 92.8 350.3 92.3 350 91.2 349.7 90.1 349.7 88.3 349.7 87.2 349.9 86.4 350 85.7 350.2 85.2 350.3 84.8 350.7 84.5 351 84.3 351.4 84.3 352 84.3 353.3 85.1 354.6 85.9 356.4 86.9 358.2 87.8 360.8 88.6 363.3 89.4 366.6 89.4 369 89.4 371 88.9 373 88.3 374.5 87.3 375.9 86.3 376.7 84.7 377.5 83.1 377.5 80.9 377.5 78.7 376.4 77.2 375.2 75.7 373.4 74.5 371.5 73.3 369.1 72.4 366.8 71.5 364.3 70.5 361.8 69.5 359.4 68.3 357.1 67 355.2 65.2 353.3 63.4 352.2 60.8 351 58.3 351 54.8 351 51.7 352.2 48.9 353.4 46 355.8 43.9 358.2 41.7 361.8 40.5 365.4 39.2 370.3 39.2 372.4 39.2 374.5 39.5 376.6 39.9 378.3 40.4 380 40.9 381.2 41.5 382.4 42.2 383 42.6 383.6 43.1 383.8 43.4 384 43.8 384.1 44.2 384.2 44.7 384.3 45.3 384.4 46 384.4 46.9 384.4 47.9 384.3 48.6 384.2 49.4 384 49.8 383.8 50.3 383.5 50.5 383.2 50.7 382.9 50.7 382.3 50.7 381.3 50.1 380.3 49.4 378.8 48.7 377.2 48 375 47.3 372.9 46.7 370.1 46.7 367.7 46.7 365.8 47.2 363.9 47.8 362.7 48.8 361.5 49.8 360.9 51.2 360.3 52.6 360.3 54.3 360.3 56.6 361.5 58.1 362.6 59.7 364.5 60.8 366.4 62 368.8 63 371.2 63.9 373.7 64.9 376.2 65.9 378.6 67.1 381 68.3 382.9 70.1 384.8 71.9 385.9 74.3 387.1 76.8 387.1 80.2Z"/>
</svg>