<!-- Text 'sitecues' as an image'-->
<svg xmlns="http://www.w3.org/2000/svg">
<g stroke="transparent" fill="#2d49a3" >
<path fill="#100f0d" d="M37.2 69.9Q37.2 73.6 35.8 76.5 34.4 79.4 31.8 81.3 29.2 83.2 25.7 84.2 22.2 85.1 18.1 85.1 15.7 85.1 13.4 84.8 11.2 84.4 9.4 83.8 7.6 83.3 6.5 82.7 5.3 82.1 4.7 81.6 4.2 81 3.9 79.9 3.6 78.8 3.6 76.7 3.6 75.2 3.7 74.4 3.8 73.5 4 73 4.2 72.5 4.5 72.3 4.8 72.1 5.2 72.1 5.8 72.1 6.8 72.7 7.9 73.3 9.5 74.1 11 74.8 13.1 75.5 15.2 76.1 17.9 76.1 19.6 76.1 20.9 75.8 22.2 75.4 23.2 74.8 24.1 74.1 24.6 73.2 25.1 72.2 25.1 70.9 25.1 69.4 24.2 68.3 23.3 67.3 21.8 66.5 20.3 65.7 18.4 65 16.5 64.3 14.5 63.5 12.5 62.6 10.6 61.6 8.7 60.5 7.2 58.9 5.7 57.3 4.8 55.1 3.8 52.9 3.8 49.8 3.8 46.6 5.1 44 6.3 41.3 8.6 39.5 10.9 37.6 14.3 36.6 17.6 35.5 21.7 35.5 23.8 35.5 25.8 35.8 27.7 36.1 29.3 36.6 30.9 37 32 37.5 33 38 33.5 38.4 34 38.8 34.2 39.1 34.4 39.5 34.5 40 34.6 40.6 34.6 41.3 34.7 42.1 34.7 43.2 34.7 44.5 34.6 45.4 34.6 46.2 34.4 46.7 34.2 47.2 33.9 47.4 33.6 47.6 33.2 47.6 32.8 47.6 31.9 47 30.9 46.5 29.5 45.9 28.1 45.3 26.3 44.8 24.4 44.3 22 44.3 20.4 44.3 19.1 44.6 17.9 45 17.1 45.6 16.3 46.3 15.9 47.1 15.5 48 15.5 49 15.5 50.5 16.5 51.5 17.4 52.6 18.9 53.4 20.5 54.2 22.4 54.9 24.4 55.5 26.4 56.4 28.4 57.2 30.3 58.3 32.3 59.3 33.8 60.9 35.3 62.5 36.2 64.7 37.2 66.9 37.2 69.9ZM58.9 82.3Q58.9 82.8 58.6 83.2 58.3 83.6 57.6 83.8 56.9 84 55.7 84.2 54.5 84.3 52.7 84.3 50.9 84.3 49.7 84.2 48.5 84 47.8 83.8 47.1 83.6 46.8 83.2 46.5 82.8 46.5 82.3L46.5 38.4Q46.5 37.9 46.8 37.6 47.1 37.2 47.8 36.9 48.5 36.7 49.7 36.5 50.9 36.4 52.7 36.4 54.5 36.4 55.7 36.5 56.9 36.7 57.6 36.9 58.3 37.2 58.6 37.6 58.9 37.9 58.9 38.4L58.9 82.3M59.9 23.4Q59.9 27.2 58.3 28.6 56.8 30 52.7 30 48.5 30 47 28.7 45.6 27.3 45.6 23.7 45.6 19.9 47.1 18.5 48.6 17 52.8 17 56.9 17 58.4 18.4 59.9 19.8 59.9 23.4ZM97.4 78Q97.4 80.2 97.1 81.3 96.8 82.5 96.4 82.9 95.9 83.4 95.1 83.8 94.2 84.1 93 84.4 91.9 84.7 90.5 84.8 89.2 85 87.8 85 84.1 85 81.4 84 78.7 83.1 76.9 81.2 75.1 79.2 74.3 76.3 73.4 73.3 73.4 69.3L73.4 46.7 68.2 46.7Q67.2 46.7 66.7 45.6 66.2 44.4 66.2 41.7 66.2 40.3 66.4 39.3 66.5 38.3 66.7 37.7 67 37.1 67.3 36.9 67.7 36.7 68.2 36.7L73.4 36.7 73.4 26.8Q73.4 26.3 73.7 26 74 25.6 74.7 25.3 75.4 25 76.6 24.9 77.8 24.8 79.6 24.8 81.4 24.8 82.6 24.9 83.8 25 84.5 25.3 85.2 25.6 85.5 26 85.8 26.3 85.8 26.8L85.8 36.7 95.4 36.7Q95.9 36.7 96.2 36.9 96.6 37.1 96.9 37.7 97.1 38.3 97.2 39.3 97.4 40.3 97.4 41.7 97.4 44.4 96.9 45.6 96.4 46.7 95.4 46.7L85.8 46.7 85.8 67.4Q85.8 71 86.9 72.8 88.1 74.6 91 74.6 92 74.6 92.8 74.4 93.6 74.2 94.2 74 94.8 73.8 95.2 73.6 95.6 73.4 96 73.4 96.3 73.4 96.5 73.6 96.8 73.8 97 74.3 97.1 74.8 97.2 75.7 97.4 76.6 97.4 78ZM145.7 59Q145.7 61.3 144.7 62.4 143.7 63.5 141.9 63.5L115.2 63.5Q115.2 66.3 115.8 68.6 116.5 70.9 117.9 72.5 119.4 74.1 121.7 74.9 124 75.8 127.2 75.8 130.4 75.8 132.9 75.3 135.4 74.8 137.2 74.3 139 73.7 140.2 73.2 141.3 72.8 142.1 72.8 142.5 72.8 142.8 72.9 143.1 73.1 143.3 73.5 143.5 74 143.6 74.8 143.7 75.6 143.7 76.8 143.7 77.9 143.6 78.7 143.6 79.5 143.5 80 143.4 80.5 143.2 80.9 143 81.3 142.6 81.6 142.3 82 140.9 82.6 139.5 83.2 137.2 83.7 135 84.3 132.2 84.7 129.3 85.1 126.1 85.1 120.2 85.1 115.8 83.7 111.4 82.2 108.4 79.2 105.4 76.2 104 71.6 102.5 67 102.5 60.8 102.5 55 104.1 50.2 105.6 45.5 108.5 42.3 111.4 39 115.6 37.2 119.7 35.5 125 35.5 130.5 35.5 134.4 37.1 138.3 38.8 140.8 41.7 143.4 44.5 144.5 48.5 145.7 52.4 145.7 57.1L145.7 59M133.7 55.5Q133.8 50.3 131.6 47.3 129.4 44.3 124.7 44.3 122.3 44.3 120.6 45.2 118.8 46.1 117.6 47.6 116.5 49.1 115.9 51.1 115.3 53.2 115.2 55.5L133.7 55.5Z"/>
<path d="M186.5 76Q186.5 76.8 186.4 77.5 186.4 78.1 186.2 78.5 186.1 78.9 185.9 79.2 185.8 79.6 185.1 80.2 184.5 80.8 183.1 81.7 181.6 82.6 179.7 83.3 177.9 84 175.7 84.5 173.5 84.9 171.2 84.9 166.4 84.9 162.7 83.4 159 81.8 156.5 78.7 154.1 75.7 152.7 71.3 151.4 66.9 151.4 61.1 151.4 54.6 153 49.8 154.6 45.1 157.4 42.1 160.2 39.1 164 37.7 167.8 36.2 172.2 36.2 174.3 36.2 176.3 36.6 178.3 37 179.9 37.6 181.6 38.3 182.9 39.1 184.2 40 184.8 40.6 185.4 41.1 185.6 41.5 185.9 41.8 186 42.3 186.2 42.8 186.2 43.4 186.3 44 186.3 44.8 186.3 46.8 185.8 47.5 185.4 48.3 184.7 48.3 184 48.3 183 47.5 182.1 46.7 180.6 45.7 179.1 44.7 177 43.9 174.9 43.1 172.1 43.1 166.2 43.1 163.1 47.6 159.9 52.1 159.9 60.7 159.9 65 160.7 68.2 161.5 71.4 163.1 73.6 164.7 75.8 167 76.8 169.3 77.9 172.3 77.9 175.1 77.9 177.2 77 179.3 76.1 180.9 75 182.4 74 183.5 73.1 184.5 72.3 185.1 72.3 185.5 72.3 185.7 72.5 186 72.7 186.1 73.1 186.3 73.6 186.4 74.3 186.5 75 186.5 76Z"/>
<path d="M230.6 82.8Q230.6 83.2 230.4 83.4 230.2 83.7 229.8 83.9 229.3 84.1 228.6 84.2 227.9 84.3 226.9 84.3 225.7 84.3 225 84.2 224.3 84.1 223.9 83.9 223.5 83.7 223.3 83.4 223.2 83.2 223.2 82.8L223.2 76.9Q219.4 81.1 215.7 83 212 84.9 208.2 84.9 203.7 84.9 200.7 83.5 197.7 82 195.8 79.4 193.9 76.9 193.1 73.5 192.3 70.1 192.3 65.3L192.3 38.4Q192.3 38 192.5 37.7 192.6 37.4 193.1 37.2 193.6 37 194.4 36.9 195.2 36.9 196.4 36.9 197.6 36.9 198.4 36.9 199.2 37 199.6 37.2 200.1 37.4 200.3 37.7 200.5 38 200.5 38.4L200.5 64.2Q200.5 68.1 201.1 70.5 201.6 72.8 202.8 74.5 203.9 76.1 205.7 77 207.5 77.9 209.9 77.9 212.9 77.9 215.9 75.8 219 73.6 222.4 69.4L222.4 38.4Q222.4 38 222.6 37.7 222.7 37.4 223.2 37.2 223.7 37 224.5 36.9 225.2 36.9 226.5 36.9 227.7 36.9 228.4 36.9 229.2 37 229.7 37.2 230.1 37.4 230.3 37.7 230.6 38 230.6 38.4L230.6 82.8Z"/>
<path d="M277.4 58.7Q277.4 60.6 276.5 61.4 275.5 62.2 274.3 62.2L245.2 62.2Q245.2 65.9 245.9 68.9 246.6 71.8 248.4 73.9 250.1 76.1 252.9 77.2 255.6 78.3 259.6 78.3 262.8 78.3 265.2 77.8 267.7 77.3 269.5 76.7 271.3 76 272.5 75.5 273.6 75 274.2 75 274.6 75 274.8 75.1 275.1 75.3 275.3 75.7 275.4 76 275.5 76.6 275.5 77.2 275.5 78.1 275.5 78.8 275.5 79.2 275.4 79.7 275.4 80.1 275.3 80.4 275.1 80.7 275 81 274.7 81.3 274.4 81.6 273.1 82.2 271.7 82.8 269.6 83.4 267.5 84 264.7 84.5 261.9 84.9 258.8 84.9 253.3 84.9 249.2 83.4 245.1 81.9 242.3 78.9 239.4 75.9 238 71.3 236.6 66.8 236.6 60.8 236.6 55.1 238.1 50.5 239.5 45.9 242.3 42.7 245.1 39.6 249.1 37.9 253 36.2 257.9 36.2 263.1 36.2 266.8 37.8 270.5 39.5 272.8 42.4 275.2 45.2 276.3 49 277.4 52.8 277.4 57.2L277.4 58.7M269.2 56.2Q269.4 49.8 266.4 46.2 263.4 42.5 257.5 42.5 254.5 42.5 252.3 43.7 250 44.8 248.5 46.7 246.9 48.5 246.1 51 245.3 53.5 245.2 56.2L269.2 56.2Z"/>
<path d="M310.4 70.7Q310.4 74.1 309.2 76.8 307.9 79.4 305.6 81.2 303.3 83.1 300.1 84 296.8 84.9 293 84.9 290.6 84.9 288.5 84.6 286.3 84.2 284.6 83.6 282.9 83.1 281.8 82.4 280.6 81.8 280 81.3 279.5 80.8 279.2 80 279 79.1 279 77.5 279 76.6 279.1 76 279.2 75.3 279.3 74.9 279.5 74.5 279.8 74.4 280 74.2 280.4 74.2 280.9 74.2 282 74.9 283 75.5 284.6 76.3 286.1 77.1 288.3 77.8 290.4 78.4 293.1 78.4 295.2 78.4 296.9 78 298.6 77.5 299.8 76.7 301 75.8 301.7 74.5 302.4 73.2 302.4 71.3 302.4 69.5 301.4 68.2 300.4 66.9 298.9 65.9 297.3 64.9 295.3 64.2 293.3 63.4 291.2 62.5 289.2 61.7 287.2 60.6 285.2 59.6 283.6 58.1 282 56.5 281 54.4 280.1 52.3 280.1 49.3 280.1 46.7 281.1 44.3 282.1 41.9 284.1 40.1 286.1 38.3 289.2 37.2 292.2 36.2 296.3 36.2 298 36.2 299.8 36.5 301.6 36.8 303 37.2 304.4 37.6 305.5 38.2 306.5 38.7 307 39.1 307.5 39.5 307.7 39.8 307.8 40.1 307.9 40.4 308 40.8 308.1 41.3 308.1 41.9 308.1 42.7 308.1 43.5 308.1 44.1 308 44.7 307.8 45.1 307.6 45.5 307.4 45.7 307.2 45.9 306.9 45.9 306.4 45.9 305.6 45.3 304.7 44.8 303.4 44.2 302.1 43.6 300.3 43 298.5 42.5 296.2 42.5 294.1 42.5 292.5 42.9 290.9 43.4 289.9 44.3 288.9 45.1 288.4 46.3 287.9 47.5 287.9 48.9 287.9 50.8 288.9 52.1 289.8 53.4 291.4 54.4 293 55.4 295 56.2 297 57 299.1 57.8 301.2 58.7 303.3 59.7 305.3 60.7 306.9 62.2 308.5 63.7 309.4 65.8 310.4 67.8 310.4 70.7Z"/>
</g>
</svg>